# xmcd
#
# Track frame offsets: 
#        150
#        14294
#        38112
#        58751
#        79761
#        96571
#        115221
#        138735
#        161826
#        182519
#
# Disc length: 2696 seconds
#
# Revision: 0
# Processed by: cddbd v1.5.2PL0 Copyright (c) Steve Scherf et al.
# Submitted via: ExactAudioCopy v0.99pb3
#
DISCID=870a860a
DTITLE=Earl Gaines - Good To Me
DYEAR=2010
DGENRE=Blues
TTITLE0=I'd Like To Try It One More Time
TTITLE1=I Don't Wanna Be Here
TTITLE2=It Ain't Easy To Tell The One You Love Goodbye
TTITLE3=I Just Don't Know Anymore
TTITLE4=You've Been Good To Me
TTITLE5=Good Old Country Boy
TTITLE6=I'm Throwing In The Towel
TTITLE7=Let The Past Be The Past
TTITLE8=If I Could Do It All Over
TTITLE9=Let's Call A Truce
EXTD=
EXTT0=
EXTT1=
EXTT2=
EXTT3=
EXTT4=
EXTT5=
EXTT6=
EXTT7=
EXTT8=
EXTT9=
PLAYORDER=
